<svg width="15" height="14" viewBox="0 0 15 14" fill="none" xmlns="http://www.w3.org/2000/svg">
<path d="M0.0767822 1.68505C0.0767822 1.21884 0.240508 0.834227 0.567946 0.531206C0.895385 0.228171 1.32107 0.0766602 1.84497 0.0766602C2.35953 0.0766602 2.77584 0.225835 3.09393 0.524213C3.42137 0.831905 3.5851 1.23283 3.5851 1.72701C3.5851 2.17456 3.42606 2.54751 3.10797 2.84589C2.78053 3.15358 2.35017 3.30743 1.81691 3.30743H1.80287C1.28832 3.30743 0.872005 3.15358 0.553913 2.84589C0.235821 2.5382 0.0767822 2.15125 0.0767822 1.68505ZM0.259215 13.9228V4.58016H3.3746V13.9228H0.259215ZM5.10069 13.9228H8.21607V8.70603C8.21607 8.37968 8.2535 8.12793 8.32834 7.95079C8.45931 7.63377 8.65812 7.3657 8.92476 7.14659C9.19139 6.92747 9.52584 6.81792 9.92813 6.81792C10.976 6.81792 11.4999 7.52188 11.4999 8.92981V13.9228H14.6152V8.56617C14.6152 7.18621 14.2878 6.1396 13.6329 5.42631C12.978 4.71302 12.1126 4.35638 11.0368 4.35638C9.8299 4.35638 8.88967 4.87386 8.21607 5.90883V5.9368H8.20204L8.21607 5.90883V4.58016H5.10069C5.1194 4.87852 5.12876 5.80625 5.12876 7.36337C5.12876 8.92048 5.1194 11.107 5.10069 13.9228Z" fill="white"/>
</svg>
