<svg width="18" height="14" viewBox="0 0 18 14" fill="none" xmlns="http://www.w3.org/2000/svg">
<path d="M18 1.71583C17.3306 1.99382 16.6174 2.17808 15.8737 2.26755C16.6388 1.83512 17.2226 1.1556 17.4971 0.336542C16.7839 0.739145 15.9964 1.02352 15.1571 1.18222C14.4799 0.499501 13.5146 0.0766602 12.4616 0.0766602C10.4186 0.0766602 8.77387 1.6466 8.77387 3.57122C8.77387 3.84814 8.79862 4.11441 8.85938 4.3679C5.7915 4.22625 3.07687 2.83418 1.25325 0.713583C0.934875 1.23654 0.748125 1.83512 0.748125 2.4795C0.748125 3.68944 1.40625 4.76199 2.38725 5.38293C1.79437 5.37228 1.21275 5.20932 0.72 4.95264C0.72 4.96329 0.72 4.97713 0.72 4.99098C0.72 6.68873 1.99912 8.09891 3.6765 8.42376C3.37612 8.50151 3.04875 8.53879 2.709 8.53879C2.47275 8.53879 2.23425 8.52601 2.01038 8.47915C2.4885 9.8627 3.84525 10.8799 5.4585 10.9129C4.203 11.8427 2.60888 12.4029 0.883125 12.4029C0.5805 12.4029 0.29025 12.3902 0 12.355C1.63462 13.353 3.57188 13.9228 5.661 13.9228C12.4515 13.9228 16.164 8.59737 16.164 3.98128C16.164 3.82684 16.1584 3.67773 16.1505 3.52968C16.8829 3.03761 17.4982 2.42305 18 1.71583Z" fill="white"/>
</svg>
